<svg xmlns="http://www.w3.org/2000/svg" width="38" height="38" viewBox="0 0 38 38"><path d="M19.594.594a.594.594,0,0,0-1.187,0V3.577A15.433,15.433,0,0,0,3.577,18.406H.594a.594.594,0,0,0,0,1.188H3.577A15.433,15.433,0,0,0,18.406,34.423v2.984a.594.594,0,0,0,1.188,0V34.423A15.433,15.433,0,0,0,34.423,19.594h2.984a.594.594,0,0,0,0-1.187H34.423A15.433,15.433,0,0,0,19.594,3.577Zm-10.687,19a.594.594,0,0,0,0-1.187H4.765A14.234,14.234,0,0,1,18.406,4.765V8.906a.594.594,0,0,0,1.188,0V4.765A14.245,14.245,0,0,1,33.235,18.406H29.094a.594.594,0,0,0,0,1.188h4.141A14.245,14.245,0,0,1,19.594,33.235V29.094a.594.594,0,0,0-1.187,0v4.141A14.234,14.234,0,0,1,4.765,19.594ZM17.219,19A1.781,1.781,0,1,1,19,20.781,1.781,1.781,0,0,1,17.219,19Zm4.75,0A2.969,2.969,0,1,0,19,21.969,2.969,2.969,0,0,0,21.969,19Z" fill="#952544"/></svg>