<svg xmlns="http://www.w3.org/2000/svg" width="37" height="36.998" viewBox="0 0 37 36.998"><path d="M12.719,30.063a1.16,1.16,0,0,0-1.156-1.156H4.625a3.47,3.47,0,0,1-3.469-3.469V4.625A3.47,3.47,0,0,1,4.625,1.156h27.75a3.47,3.47,0,0,1,3.469,3.469V25.437a3.47,3.47,0,0,1-3.469,3.469H22.352a1.144,1.144,0,0,0-.694.231l-8.939,6.706ZM4.625,0A4.629,4.629,0,0,0,0,4.625V25.437a4.629,4.629,0,0,0,4.625,4.625h6.938v5.781a1.151,1.151,0,0,0,.636,1.033,1.17,1.17,0,0,0,1.214-.108l8.939-6.706H32.375A4.629,4.629,0,0,0,37,25.437V4.625A4.629,4.629,0,0,0,32.375,0ZM16.766,8.094a.58.58,0,0,1,.578-.578h2.313a.58.58,0,0,1,.578.578v4.047a.58.58,0,0,0,.578.578h4.047a.58.58,0,0,1,.578.578v2.313a.58.58,0,0,1-.578.578H20.813a.58.58,0,0,0-.578.578v4.047a.58.58,0,0,1-.578.578H17.344a.58.58,0,0,1-.578-.578V16.766a.58.58,0,0,0-.578-.578H12.141a.58.58,0,0,1-.578-.578V13.3a.58.58,0,0,1,.578-.578h4.047a.58.58,0,0,0,.578-.578Zm.578-1.734a1.73,1.73,0,0,0-1.734,1.734v3.469H12.141A1.73,1.73,0,0,0,10.406,13.3v2.313a1.73,1.73,0,0,0,1.734,1.734h3.469v3.469a1.73,1.73,0,0,0,1.734,1.734h2.313a1.73,1.73,0,0,0,1.734-1.734V17.344h3.469a1.73,1.73,0,0,0,1.734-1.734V13.3a1.73,1.73,0,0,0-1.734-1.734H21.391V8.094a1.73,1.73,0,0,0-1.734-1.734Z" fill="#952544"/></svg>